<?xml version="1.0" encoding="UTF-8"?>
<svg id="Layer_1" xmlns="http://www.w3.org/2000/svg" version="1.1" viewBox="0 0 1200 628">
  <!-- Generator: Adobe Illustrator 30.2.1, SVG Export Plug-In . SVG Version: 2.1.1 Build 1)  -->
  <defs>
    <style>
      .st0 {
        fill: #0c1f32;
      }

      .st1 {
        fill: #be5729;
      }
    </style>
  </defs>
  <path class="st0" d="M210.15,307.67c-.34,9.13-4.63,16.11-11.69,20.78l6.44,4.65h-60.63s.1-98.09.1-98.09l37.84.15c9.57.04,17.91,4.73,23.22,12.28,2.96,5.83,4.77,12.06,4.87,18.79.22,13.82.38,27.26-.15,41.44ZM186.73,308.42l.03-41.79c0-4.3-2.92-9.08-7.1-9.7-3.66-.55-7.15-.44-11.4-.22l.04,62c4.2.31,7.73.4,11.42-.23,4.11-.71,7.02-5.42,7.02-10.06Z"/>
  <path class="st0" d="M213.02,393.21c.01,7.48-1.98,13.94-4.83,20.25-5.15,7.67-13.41,13.29-23.22,13.34l-40.64.19v-90.5s33.85-.07,33.85-.07l30.55.09c2.66,5.48,4.21,11.35,4.22,17.58l.07,39.11ZM188.72,394.05l-.17-46.43c0-2.67-2.04-6.31-3.54-7.84-2.93-2.98-13.66-3.25-16.75-1.47l.03,66.64c4.54.37,8.4.46,12.41-.04,5.01-.62,8.04-5.42,8.02-10.85Z"/>
  <polygon class="st1" points="903.35 426.58 878.9 427.06 873.89 385.24 851.51 385.13 846.83 427.04 822.52 426.98 834.88 336.47 856.41 336.56 853.95 363.45 871.66 363.59 868.8 336.53 891.17 336.53 903.35 426.58"/>
  <path class="st0" d="M357.91,336.51l-.17,62.02c-.03,11.28-5.97,22.1-15.9,27.2-10.53,5.41-23.78,5.46-34.55.57s-17.37-16.42-17.4-28.47l-.18-61.37,23.52.11.43,60.93c.04,6.16,5.22,9.97,10,10.16,5.5.23,10.44-4.28,10.46-10.62l.22-60.5,23.56-.03Z"/>
  <path class="st0" d="M772.2,234.99l23.85.06-20.65,98.02-33.25.09-20.54-98.09,24.27.02,12.49,75.7c.62-.27,1.61-1.61,1.76-2.53l12.07-73.26Z"/>
  <path class="st0" d="M579.06,302.31l-.47-37.73c-.08-5.96-4.47-10.54-9.62-10.75s-10.74,4.06-10.76,10.33l-.26,68.92h-24.19s.57-69.43.57-69.43c.1-11.88,6.26-22.31,16.72-27.6,16.49-8.34,43.18-4.15,49.15,17.96,1.51,5.6,2.1,11.47,2.1,17.32v30.9s-23.24.07-23.24.07Z"/>
  <path class="st0" d="M602.25,354.94l-.06,39.84c-.03,18.89-10.43,33.94-30.21,34.82-7.67.34-15.2-.18-21.89-4.05-10.27-5.95-15.95-17.07-16.01-29.1l-.28-59.8,24.08-.11.23,60.1c.02,6.19,4.81,10.87,10.03,10.99,5.49.12,10.45-4.24,10.5-10.59l.3-42.08,23.3-.02Z"/>
  <path class="st1" d="M979,354.93l-.12,42.67c-.03,10.61-4.65,20.57-13.11,26.64-12.86,9.22-42.6,8.45-51.22-12.71-2.51-6.15-3.6-12.93-3.6-19.69v-55.29s13.26-.02,13.26-.02c1.86,7.63,5.1,13.89,10.6,19.25l.41,42.09c.06,5.92,5.61,9.98,10.36,9.99,5.71,0,10.02-4.67,10.06-10.98l.26-41.85,23.1-.1Z"/>
  <path class="st1" d="M952.86,257.46c-2.68-3.93-7.98-4.07-11.56-2.75-2.85,1.05-6.24,5.5-6.26,9.49l-.22,39.02c-7.71,7.96-11.71,17.56-11.02,29.69l-12.88.2.35-68.52c.04-8.77,3.51-17.65,9.46-23.56,11.75-11.69,37.57-12.07,49.35.34,5.96,6.28,8.69,15.02,8.74,23.67l.25,37.16-23.19.02-.02-33.49c0-3.6-.85-8.13-3-11.28Z"/>
  <polygon class="st1" points="868.51 333.2 862.64 279.87 857.21 333.07 835.71 333.06 849.02 235.04 877.15 235.13 890.43 333.04 868.51 333.2"/>
  <polygon class="st0" points="461.68 321.89 488.24 321.97 488.29 333.13 437.53 333.09 437.59 234.96 493.37 234.95 493.3 256.78 461.73 256.85 461.68 321.89"/>
  <polygon class="st0" points="396.68 321.86 423.17 322 423.22 333.1 372.59 333.1 372.62 234.95 428.38 234.99 428.39 256.76 396.72 256.86 396.68 321.86"/>
  <polygon class="st0" points="696.15 333.03 672.14 333.11 672.13 256.96 650.03 256.72 650.04 234.95 718.39 234.97 718.42 256.74 696.19 256.88 696.15 333.03"/>
  <polygon class="st0" points="281.53 404.78 281.71 427.02 224.59 427.04 224.61 336.54 248.55 336.58 248.57 404.76 281.53 404.78"/>
  <rect class="st0" x="579.16" y="271.83" width="98.23" height="24.41" transform="translate(343.19 911.83) rotate(-89.9)"/>
  <path class="st0" d="M461.78,339.86l-.11,87.11-24.08.09v-90.52s48.65-.1,48.65-.1c.68,0,1.9.11,1.91.55l.05,2.73-26.42.14Z"/>
  <path class="st0" d="M396.68,339.87l-.07,87.12-23.97.03v-90.49s49.98-.07,49.98-.07c.23.99.28,2.81.11,3.35l-26.05.06Z"/>
  <rect class="st0" x="289.48" y="234.95" width="23.99" height="98.17"/>
  <rect class="st0" x="224.45" y="234.94" width="24.42" height="98.21" transform="translate(-.8 .67) rotate(-.16)"/>
  <rect class="st0" x="334.32" y="234.94" width="23.74" height="98.17"/>
  <path class="st0" d="M770.65,426.93l-23.86.13-.2-74.64c-.01-5.22-2.71-10.12-3.09-15.89l30.55.02-3.41,15.95v74.45Z"/>
  <rect class="st0" x="582.98" y="369.61" width="90.56" height="24.31" transform="translate(246.43 1009.99) rotate(-89.99)"/>
  <rect class="st0" x="672.1" y="336.46" width="24.06" height="90.59"/>
  <polygon class="st0" points="1084.76 336.88 983.05 336.82 987.45 322.07 1088.98 322.11 1084.76 336.88"/>
  <polygon class="st0" points="1093.96 316.73 1014.82 316.74 1019.16 301.91 1098.38 302.04 1093.96 316.73"/>
  <polygon class="st0" points="1058.64 355.05 996.39 355.06 1000.97 340.16 1062.91 340.19 1058.64 355.05"/>
</svg>