<?xml version="1.0" encoding="UTF-8"?>
<svg id="Layer_1" xmlns="http://www.w3.org/2000/svg" version="1.1" viewBox="0 0 24 24">
  <!-- Generator: Adobe Illustrator 30.0.0, SVG Export Plug-In . SVG Version: 2.1.1 Build 123)  -->
  <path d="M22.93,12c0,6.03-4.89,10.92-10.93,10.92S1.07,18.03,1.07,12,5.97,1.08,12,1.08s10.93,4.89,10.93,10.92ZM20.82,12c0-4.87-3.95-8.82-8.83-8.82S3.17,7.13,3.17,12s3.95,8.82,8.83,8.82,8.83-3.95,8.83-8.82Z"/>
  <path d="M16.63,6.39c.58-.1,1.13.47.97,1.04-.97,1.99-1.78,4.13-2.77,6.09-.42.82-.43.86-1.25,1.28-1.93.99-4.05,1.75-5.99,2.74-.68.33-1.43-.38-1.15-1.08.99-1.96,1.76-4.09,2.76-6.04.41-.8.44-.82,1.23-1.23,1.99-1.02,4.18-1.83,6.2-2.81ZM13.42,12c0-.78-.63-1.42-1.42-1.42s-1.42.63-1.42,1.42.63,1.42,1.42,1.42,1.42-.63,1.42-1.42Z"/>
</svg>