<?xml version="1.0" encoding="UTF-8"?>
<svg id="Layer_1" xmlns="http://www.w3.org/2000/svg" version="1.1" viewBox="0 0 24 24">
  <!-- Generator: Adobe Illustrator 30.0.0, SVG Export Plug-In . SVG Version: 2.1.1 Build 123)  -->
  <path d="M18.64,8.19c.05-.09-.05-.5-.04-.68.08-1.88,2.42-2.83,3.77-1.45,1.58,1.61-.05,4.25-2.17,3.66-.17-.05-.49-.26-.61-.23l-2.45,1.8c-.06.05-.14.1-.14.19,0,.06.28.71.33.89.23.93.22,1.79-.04,2.71-.03.12-.17.29-.1.4l2.27,1.36c.92-.59,2.08-.57,2.88.21,1.22,1.2.62,3.32-1.03,3.69-1.55.35-2.86-.95-2.7-2.49l-2.25-1.34-.12.02c-2.45,2.83-7.1,1.91-8.36-1.61-.06-.15-.17-.8-.27-.83h-2.35c-.42.77-1.12,1.37-2.05,1.37-2.34,0-3.07-3.24-.95-4.2,1.21-.55,2.4.05,2.99,1.16h2.35c.08-.02.27-.81.34-.98.34-.88.98-1.71,1.78-2.21l-.9-1.98c-.78-.12-1.45-.33-1.92-.99-1.18-1.66.38-3.88,2.34-3.38,1.58.4,2.19,2.44,1.06,3.63l.96,1.95c1.68-.41,3.52,0,4.73,1.26l2.66-1.93ZM9.52,5.39c0-.46-.37-.83-.83-.83s-.83.37-.83.83.37.83.83.83.83-.37.83-.83ZM21.63,7.6c0-.46-.37-.83-.83-.83s-.83.37-.83.83.37.83.83.83.83-.37.83-.83ZM15.85,13.65c0-1.83-1.48-3.31-3.31-3.31s-3.31,1.48-3.31,3.31,1.48,3.31,3.31,3.31,3.31-1.48,3.31-3.31ZM4.01,13.65c0-.46-.37-.83-.83-.83s-.83.37-.83.83.37.83.83.83.83-.37.83-.83ZM21.63,18.61c0-.46-.37-.83-.83-.83s-.83.37-.83.83.37.83.83.83.83-.37.83-.83Z"/>
</svg>