<?xml version="1.0" encoding="UTF-8"?>
<svg id="Layer_1" xmlns="http://www.w3.org/2000/svg" version="1.1" viewBox="0 0 24 24">
  <!-- Generator: Adobe Illustrator 30.0.0, SVG Export Plug-In . SVG Version: 2.1.1 Build 123)  -->
  <path d="M3.06,17.01c.24.62.69,1.12,1.08,1.65-.13.25-1.05,2.04-.95,2.14,1.41-.4,2.66-1.28,3.85-2.09-3.42-2.54-4.41-7.22-2.26-10.93,2.78-4.8,9.48-5.52,13.31-1.53.12.12.56.77.67.74.35-.35,2.22-3.6,2.02-3.79-.77.18-1.45.61-2.14.96l-1.71-1.21c.83-.4,1.61-.93,2.46-1.3,2.88-1.22,4.26-.42,3.05,2.73-.62,1.6-1.72,3.11-2.67,4.52,2.61,6.83-4.05,13.5-10.89,10.89-1.68,1.1-3.55,2.54-5.54,3-3,.7-2.38-1.93-1.58-3.7.24-.53.71-1.46,1.05-1.9.06-.08.11-.2.24-.17ZM11.34,5.59c-1.67.16-3.36,1.11-4.38,2.43-2.41,3.1-1.6,7.45,1.73,9.48,3.28-2.56,6.28-5.52,8.82-8.81-1.29-2.13-3.67-3.34-6.16-3.1ZM18.26,10.78c-1.54,1.89-3.2,3.7-4.98,5.36-.67.63-1.79,1.39-2.35,2.02-.06.07-.14.09-.03.16,4.16.73,7.83-2.67,7.52-6.87,0-.11-.08-.68-.16-.67Z"/>
</svg>