<?xml version="1.0" encoding="UTF-8"?>
<svg id="Layer_1" xmlns="http://www.w3.org/2000/svg" version="1.1" viewBox="0 0 24 24">
  <!-- Generator: Adobe Illustrator 30.0.0, SVG Export Plug-In . SVG Version: 2.1.1 Build 123)  -->
  <defs>
    <style>
      .st0 {
        fill: none;
        stroke: #000;
        stroke-linecap: round;
        stroke-linejoin: round;
        stroke-width: 1.5px;
      }
    </style>
  </defs>
  <path class="st0" d="M15.63,14.34c.76,3.22-1.23,6.46-4.46,7.22-.45.11-.92.16-1.38.16v-4.8M15.63,14.34c3.87-2.82,6.16-7.33,6.16-12.12-4.79,0-9.3,2.29-12.12,6.16M15.63,14.34c-1.74,1.27-3.73,2.15-5.84,2.58M9.67,8.38c-3.22-.76-6.46,1.23-7.22,4.46-.11.45-.16.92-.16,1.38h4.8M9.67,8.38c-1.27,1.74-2.15,3.73-2.58,5.84M9.79,16.92c-.1.02-.21.04-.31.06-.91-.72-1.73-1.54-2.45-2.45.02-.1.04-.21.06-.31M4.85,16.61c-1.34,1-2.02,2.66-1.76,4.31,1.65.26,3.31-.42,4.31-1.76M16.54,8.97c0,.83-.67,1.5-1.5,1.5s-1.5-.67-1.5-1.5.67-1.5,1.5-1.5,1.5.67,1.5,1.5Z"/>
</svg>