<?xml version="1.0" encoding="UTF-8"?>
<svg id="Layer_1" xmlns="http://www.w3.org/2000/svg" version="1.1" viewBox="0 0 24 24">
  <!-- Generator: Adobe Illustrator 30.0.0, SVG Export Plug-In . SVG Version: 2.1.1 Build 123)  -->
  <defs>
    <style>
      .st0 {
        fill: none;
        stroke: #000;
        stroke-linecap: round;
        stroke-linejoin: round;
        stroke-width: 1.5px;
      }
    </style>
  </defs>
  <path class="st0" d="M9.81,15.9l-.81,2.85-.81-2.85c-.43-1.49-1.6-2.66-3.09-3.09l-2.85-.81,2.85-.81c1.49-.43,2.66-1.6,3.09-3.09l.81-2.85.81,2.85c.43,1.49,1.6,2.66,3.09,3.09l2.85.81-2.85.81c-1.49.43-2.66,1.6-3.09,3.09Z"/>
  <path class="st0" d="M18.26,8.71l-.26,1.04-.26-1.04c-.3-1.21-1.25-2.15-2.46-2.46l-1.04-.26,1.04-.26c1.21-.3,2.15-1.25,2.46-2.46l.26-1.04.26,1.04c.3,1.21,1.25,2.15,2.46,2.46l1.04.26-1.04.26c-1.21.3-2.15,1.25-2.46,2.46Z"/>
  <path class="st0" d="M16.89,20.57l-.39,1.18-.39-1.18c-.22-.67-.75-1.2-1.42-1.42l-1.18-.39,1.18-.39c.67-.22,1.2-.75,1.42-1.42l.39-1.18.39,1.18c.22.67.75,1.2,1.42,1.42l1.18.39-1.18.39c-.67.22-1.2.75-1.42,1.42Z"/>
</svg>