<?xml version="1.0" encoding="UTF-8"?>
<svg id="Icon" xmlns="http://www.w3.org/2000/svg" viewBox="0 0 2108.95 713.29">
  <defs>
    <style>
      .cls-1 {
        fill: #fff;
      }

      .cls-2 {
        fill: #e04747;
      }
    </style>
  </defs>
  <g>
    <path class="cls-1" d="M624.64,178.82c-25.12,4.4-30.01,32.83-26.75,54.41,2.41.21,1.53.12,1.81-1.39,3.49-18.67,8.19-35.78,28.15-42.89,40.52-14.43,68.13,34.49,77.5,66.42,17.09,58.24,7.24,165.82-65.8,179.97-84.29,151.77-304.17,160.94-404.02,18.58-3.55-5.07-13.31-24.04-15.41-26.09-1.28-1.24-4.34-1.74-6.26-2.96-49.25-31.43-62.76-100.9-51.08-154.92,8.04-37.17,30.63-78.7,69.81-89.27l-18.27,21.84c-33.32,47.96-41.51,114.49-19.97,169.02,3.17,8.03,7.01,17.34,12.41,24.01-3.84-13.62-7.91-27.13-9.98-41.19-22.62-152.98,107.57-277.43,258.59-264.04,57.73,5.12,131.8,37.33,167.42,84.38.92,1.22,2.05,2.46,1.86,4.13ZM475.2,319l-46.12,4.16,53.49-93.11c-.36-1.69-23.02-6.85-26.57-7.58-100.79-20.84-272.82-3.99-242.49,140.05,20.37,96.74,125.98,157.31,220.63,149.21,73.06-6.26,151.32-56.02,167.44-130.94,2.37-.36,1.44.21,1.93,1.3.9,1.98,1.26,4.79,2.23,6.99,13.69,31.02,45.41,37.52,68.26,11.09,30.64-35.45,33.21-117.26,13.53-158.33-20.19-42.15-55.51-42.78-74.41.64-12.07,27.72-12.88,59.62-12.48,89.43-2.54-6.91-5.09-13.82-7.63-20.73-5.36-11.08-15.63-28.29-34.36-42.87-7.92-6.17-15.68-10.57-22.44-13.74l-25.96,38.61-35.05,25.82ZM607.22,318.99"/>
    <path class="cls-1" d="M660.36,228.8c9.11-2.02,16.32,13.21,19.15,20.12,14.42,35.23,12.75,96.75-3.34,131.26-11.78,25.27-22.97,21.06-31.92-2.87-12.98-34.68-11.33-98.4,3.59-132.43,2.04-4.64,7.35-14.94,12.53-16.09ZM671.43,274.21c-.54.14-1.07.29-1.61.43-.77,4.48-1.51,9.01-2.22,13.6-1.64,10.63-3.05,21.04-4.24,31.2,2.04,1.01,4.07,2.02,6.11,3.03-1.29,10.63-2.58,21.26-3.87,31.88.46-.26,3.25-4.08,3.35-4.43.64-2.2,6.86-17.28,15.65-38.3-1.41-.69-2.85-1.42-4.31-2.19-1.33-.7-2.61-1.39-3.87-2.09,2.16-5.89,4.32-11.78,6.47-17.67-3.82-5.15-7.65-10.31-11.47-15.46Z"/>
    <path class="cls-1" d="M261.18,285.8c-9.36,64.61,21.75,133.77,74.43,171.35,13.64,9.73,29.17,17.69,45.02,23.24,4.91,1.72,10.76,2.39,15.23,4.18,1.48.59,2.25-.09,1.84,2.26-56.67-1.98-108.76-31.12-136.08-81.13-16.66-30.48-24.46-74.81-10.75-107.62.98-2.36,6.9-15.58,10.31-12.28Z"/>
    <path class="cls-1" d="M658.76,222.18l-8.6,3.83c-36.06,29.78-36.79,140.68-6.19,170.95,3.58,3.54,7.78,5.62,12.95,5.04-1.16,2.4-6.48,2.06-8.76,1.84-14.04-1.35-23.64-20.47-27.63-32.31-11.49-34.12-9.7-98.94,8.57-130.61,6.13-10.63,15.91-22.57,29.67-18.74Z"/>
  </g>
  <g>
    <path class="cls-2" d="M510.53,292.77c7.13-.08,40.19-.4,47.53-.47l-146.82,144.89,63.86-118.32c11.81-8.7,23.61-17.39,35.42-26.09Z"/>
    <ellipse class="cls-2" cx="305.9" cy="273.75" rx="16.6" ry="16.6"/>
  </g>
  <path class="cls-1" d="M1357.75,302.66c0,29.24-28.19,53.74-88.26,53.74-40.31,0-72.71-11.33-94.05-25.56l25.29-31.61c16.6,10.27,40.31,18.44,70.61,18.44,18.18,0,28.45-2.11,28.45-8.96,0-6.32-9.22-8.43-33.2-10.01-42.94-2.37-85.1-15.54-85.1-49.53,0-31.09,33.99-51.9,87.47-51.9,32.67,0,62.44,7.11,82.99,18.97l-25.29,32.67c-15.02-8.43-35.04-12.65-58.49-12.65-15.02,0-28.98,1.58-28.98,8.43,0,6.32,11.59,7.38,33.99,8.69,47.42,2.37,84.57,16.07,84.57,49.27Z"/>
  <path class="cls-1" d="M1679.11,263.14v87.2h-61.91v-83.78c0-14.23-7.64-23.45-22.66-23.45-12.91,0-23.45,6.85-32.14,21.87v85.36h-61.91v-83.78c0-14.23-7.64-23.45-22.92-23.45-12.65,0-23.18,6.85-31.88,21.6v85.62h-62.17v-146.74h62.17v21.6c12.12-17.65,30.56-26.87,54.27-26.87,30.03,0,49,13.96,57.43,35.83,9.48-20.29,29.24-35.83,59.28-35.83,41.89,0,62.44,27.4,62.44,64.81Z"/>
  <path class="cls-1" d="M1050.54,555.17v-148.92h57.13v24.87c11.14-19.79,30.5-28.61,53.01-28.61v51.6c-28.08,0-47.2,11.5-53.01,34.22v66.84h-57.13Z"/>
  <path class="cls-1" d="M1267.28,515.11c19.06,0,29.85-4.82,42.02-14.46l26.17,29.92c-18.37,18.01-42.48,24.6-71.18,24.6-55.79,0-88.17-28.66-88.17-76.59s32.14-76.59,84.03-76.59c45.92,0,80.36,25.11,80.36,75.07,0,6.34-.69,10.4-1.61,13.95h-111.59c4.13,17.5,17.68,24.09,39.95,24.09ZM1228.48,462.36l63.14-.25c-4.36-13.44-14.46-20.54-31-20.54s-27.55,6.59-32.14,20.8Z"/>
  <path class="cls-1" d="M1522.37,469.97v53c0,10.14,1.61,18.26,5.51,26.37h-54.42c-2.3-3.55-4.13-8.12-4.13-12.43v-.51c-9.64,10.65-26.63,18.01-47.53,18.01-26.4,0-59.93-11.67-59.93-47.42s33.52-47.17,59.93-47.17c20.89,0,37.88,7.35,47.53,18.26v-8.88c0-17.24-13.32-26.63-38.57-26.63-13.55,0-29.16,2.28-45.23,10.4l-10.56-37.03c18.14-8.88,45.46-13.44,67.04-13.44,50.51,0,80.36,24.09,80.36,67.46ZM1470.25,505.98c-8.04-10.9-21.35-13.69-31.91-13.69s-24.11,3.3-24.11,14.71,13.32,14.96,24.11,14.96,23.88-2.79,31.91-13.69v-2.28Z"/>
  <path class="cls-1" d="M1872.83,470.82v84.19h-52.65v-80.39c0-13.95-7.62-22.82-21.06-22.82-11.2,0-21.29,6.09-29.8,20.54v82.67h-52.88v-187.66h52.88v66.95c10.98-16.74,27.56-25.61,48.4-25.61,35.18,0,55.12,25.87,55.12,62.13Z"/>
  <path class="cls-1" d="M1056.99,195.7c69.27-6.46,114.11,19.46,107.15,94.22-8.24,88.48-158.79,90.12-178.35,13.99-14.81-57.66,10.86-102.58,71.2-108.21ZM1041.07,242.71c-11.75,11.74-12.65,46.1-4.68,59.73,13.91,23.79,66.73,22.61,76.44-4.05,5.54-15.23,6.47-41.74-5.12-54.38-13.09-14.28-53.36-14.57-66.64-1.3Z"/>
  <path class="cls-1" d="M963.83,348.54c-1.06,3.26-14.12,4.74-18.2,5.3-62.87,8.63-134.08-1.27-131.45-80.09,2.74-82.16,84.9-82.63,146.58-71.51l-1.43,34.03c-33.63-1.06-92.28-13.8-97.81,33.55-7.25,62.04,62.36,49.09,102.31,45.65v33.07Z"/>
  <path class="cls-1" d="M1950.13,348.54c-1.06,3.26-14.12,4.74-18.2,5.3-62.87,8.63-134.08-1.27-131.45-80.09,2.74-82.16,84.9-82.63,146.58-71.51l-1.43,34.03c-33.63-1.06-92.28-13.8-97.81,33.55-7.25,62.04,62.36,49.09,102.31,45.65v33.07Z"/>
  <path class="cls-1" d="M1682.86,547.44c-.92,3.14-12.3,4.56-15.86,5.1-54.79,8.3-116.85-1.22-114.56-77.1,2.39-79.09,73.99-79.54,127.75-68.83l-1.25,32.76c-29.31-1.02-80.42-13.28-85.24,32.29-6.31,59.72,54.34,47.26,89.16,43.94v31.84Z"/>
  <polygon class="cls-2" points="962.11 478.4 873.3 402 835.83 434.23 887.17 478.4 835.83 522.56 873.3 554.79 962.11 478.4 962.11 478.4 962.11 478.4"/>
  <path class="cls-1" d="M1762.96,164.69c-4.08-3.47-11.07-4.99-16.3-5.54l-4.37-.32h-4.03c-6.45.21-16.33,1.63-20.83,6.7-3.56,4.02-5.02,10.85-5.22,16.08-.04,1.07.03,2.14,0,3.21l.13,1.79c.31,2.87.82,5.8,2,8.45.25.57.54,1.11.87,1.63,5.46,8.87,20.08,10.79,29.44,10.03,7.68-.63,17.85-3.51,21.68-10.87.11-.22.22-.44.33-.67,3.89-8.63,4.08-23.89-3.69-30.5Z"/>
  <path class="cls-1" d="M1745.33,224.33c-5.17.42-11.8.1-17.89-1.55-3.97-1.08-9.05-2.69-13.01-7.32-.74-.87-1.28-1.66-1.64-2.21,0,0,0,2.39,0,2.4,0,67.35,0,131.27,0,134.7h56.49v-138.03c-.41.73-1.06,1.8-2.02,2.97-6.12,7.45-16.03,8.56-21.93,9.04Z"/>
</svg>