<?xml version="1.0" encoding="UTF-8"?>
<svg id="Icon" xmlns="http://www.w3.org/2000/svg" viewBox="0 0 871.42 783.51">
  <defs>
    <style>
      .cls-1 {
        fill: #fff;
      }
    </style>
  </defs>
  <g>
    <path class="cls-1" d="M624.64,248.33c-25.12,4.4-30.01,32.83-26.75,54.41,2.41.21,1.53.12,1.81-1.39,3.49-18.67,8.19-35.78,28.15-42.89,40.52-14.43,68.13,34.49,77.5,66.42,17.09,58.24,7.24,165.82-65.8,179.97-84.29,151.77-304.17,160.94-404.02,18.58-3.55-5.07-13.31-24.04-15.41-26.09-1.28-1.24-4.34-1.74-6.26-2.96-49.25-31.43-62.76-100.9-51.08-154.92,8.04-37.17,30.63-78.7,69.81-89.27l-18.27,21.84c-33.32,47.96-41.51,114.49-19.97,169.02,3.17,8.03,7.01,17.34,12.41,24.01-3.84-13.62-7.91-27.13-9.98-41.19-22.62-152.98,107.57-277.43,258.59-264.04,57.73,5.12,131.8,37.33,167.42,84.38.92,1.22,2.05,2.46,1.86,4.13ZM475.2,388.51l-46.12,4.16,53.49-93.11c-.36-1.69-23.02-6.85-26.57-7.58-100.79-20.84-272.82-3.99-242.49,140.05,20.37,96.74,125.98,157.31,220.63,149.21,73.06-6.26,151.32-56.02,167.44-130.94,2.37-.36,1.44.21,1.93,1.3.9,1.98,1.26,4.79,2.23,6.99,13.69,31.02,45.41,37.52,68.26,11.09,30.64-35.45,33.21-117.26,13.53-158.33-20.19-42.15-55.51-42.78-74.41.64-12.07,27.72-12.88,59.62-12.48,89.43-2.54-6.91-5.09-13.82-7.63-20.73-5.36-11.08-15.63-28.29-34.36-42.87-7.92-6.17-15.68-10.57-22.44-13.74l-25.96,38.61-35.05,25.82ZM607.22,388.5"/>
    <path class="cls-1" d="M660.36,298.31c9.11-2.02,16.32,13.21,19.15,20.12,14.42,35.23,12.75,96.75-3.34,131.26-11.78,25.27-22.97,21.06-31.92-2.87-12.98-34.68-11.33-98.4,3.59-132.43,2.04-4.64,7.35-14.94,12.53-16.09ZM671.43,343.72c-.54.14-1.07.29-1.61.43-.77,4.48-1.51,9.01-2.22,13.6-1.64,10.63-3.05,21.04-4.24,31.2,2.04,1.01,4.07,2.02,6.11,3.03-1.29,10.63-2.58,21.26-3.87,31.88.46-.26,3.25-4.08,3.35-4.43.64-2.2,6.86-17.28,15.65-38.3-1.41-.69-2.85-1.42-4.31-2.19-1.33-.7-2.61-1.39-3.87-2.09,2.16-5.89,4.32-11.78,6.47-17.67-3.82-5.15-7.65-10.31-11.47-15.46Z"/>
    <path class="cls-1" d="M261.18,355.31c-9.36,64.61,21.75,133.77,74.43,171.35,13.64,9.73,29.17,17.69,45.02,23.24,4.91,1.72,10.76,2.39,15.23,4.18,1.48.59,2.25-.09,1.84,2.26-56.67-1.98-108.76-31.12-136.08-81.13-16.66-30.48-24.46-74.81-10.75-107.62.98-2.36,6.9-15.58,10.31-12.28Z"/>
    <path class="cls-1" d="M658.76,291.69l-8.6,3.83c-36.06,29.78-36.79,140.68-6.19,170.95,3.58,3.54,7.78,5.62,12.95,5.04-1.16,2.4-6.48,2.06-8.76,1.84-14.04-1.35-23.64-20.47-27.63-32.31-11.49-34.12-9.7-98.94,8.57-130.61,6.13-10.63,15.91-22.57,29.67-18.74Z"/>
  </g>
  <g>
    <path class="cls-1" d="M510.53,362.29c7.13-.08,40.19-.4,47.53-.47l-146.82,144.89,63.86-118.32c11.81-8.7,23.61-17.39,35.42-26.09Z"/>
    <ellipse class="cls-1" cx="305.9" cy="343.26" rx="16.6" ry="16.6"/>
  </g>
</svg>